<mxfile host="app.diagrams.net" modified="2024-06-06T12:40:41.319Z" agent="Mozilla/5.0 (Windows NT 10.0; Win64; x64) AppleWebKit/537.36 (KHTML, like Gecko) Chrome/125.0.0.0 Safari/537.36" etag="jrjO_Q2WrSjJRdMHYkKk" version="24.4.13" type="device">
  <diagram name="Page-1" id="XPGwv1l36dXrdQZ3T76c">
    <mxGraphModel dx="2868" dy="1476" grid="1" gridSize="10" guides="1" tooltips="1" connect="1" arrows="1" fold="1" page="1" pageScale="1" pageWidth="827" pageHeight="1169" math="0" shadow="0">
      <root>
        <mxCell id="0" />
        <mxCell id="1" parent="0" />
        <mxCell id="X08TphvUrJ8iC7uKPG2M-64" value="" style="whiteSpace=wrap;html=1;aspect=fixed;fillColor=none;strokeColor=#000099;dashed=1;strokeWidth=4;" vertex="1" parent="1">
          <mxGeometry x="2204.25" y="589.25" width="261.5" height="261.5" as="geometry" />
        </mxCell>
        <mxCell id="X08TphvUrJ8iC7uKPG2M-8" value="" style="whiteSpace=wrap;html=1;aspect=fixed;fillColor=default;dashed=1;strokeWidth=4;strokeColor=#040876;" vertex="1" parent="1">
          <mxGeometry x="1811" y="610" width="254" height="254" as="geometry" />
        </mxCell>
        <mxCell id="X08TphvUrJ8iC7uKPG2M-14" value="" style="whiteSpace=wrap;html=1;aspect=fixed;fillColor=none;dashed=1;strokeColor=#0b1da2;strokeWidth=4;" vertex="1" parent="1">
          <mxGeometry x="770" y="647" width="180" height="180" as="geometry" />
        </mxCell>
        <mxCell id="X08TphvUrJ8iC7uKPG2M-3" value="" style="whiteSpace=wrap;html=1;aspect=fixed;fillColor=default;dashed=1;strokeWidth=4;strokeColor=#040876;" vertex="1" parent="1">
          <mxGeometry x="400" y="610" width="254" height="254" as="geometry" />
        </mxCell>
        <mxCell id="X08TphvUrJ8iC7uKPG2M-2" value="" style="image;sketch=0;aspect=fixed;html=1;points=[];align=center;fontSize=12;image=img/lib/mscae/Docker.svg;" vertex="1" parent="1">
          <mxGeometry x="472.12" y="630" width="109.76" height="90" as="geometry" />
        </mxCell>
        <mxCell id="X08TphvUrJ8iC7uKPG2M-4" value="" style="shape=image;verticalLabelPosition=bottom;labelBackgroundColor=default;verticalAlign=top;aspect=fixed;imageAspect=0;image=data:image/jpeg,/9j/4AAQSkZJRgABAQAAAQABAAD/2wCEAAoHCBQUEhcUFBUYGBcZGBkeGRkaGRoXGR4gFx0YHRoYGh0eISwjGh0pHhcaJDYkKi0vMzNAGiI6PjgyPSwyMy8BCwsLDg4PHRERGT0gFyA9ND02LzA9NjU2PTc9OzI9Ly83MjovND09MjIyMi84ND00MDMyNDcvMjIvNDI1MzcvPf/AABEIALIBGwMBIgACEQEDEQH/xAAcAAEAAgMBAQEAAAAAAAAAAAAABgcEBQgBAwL/xABDEAACAQMBBQYEAggDBgcAAAABAgMABBESBQYHITETIkFRYXEyQoGRFKEjUlNicoKiwTOSsRdjc8LR8BU0Q1Sy0vH/xAAaAQEBAQEBAQEAAAAAAAAAAAAAAQUDBAIG/8QAJhEBAAICAQMDBAMAAAAAAAAAAAECAxEEEyExEjJBIiNRYQVx8f/aAAwDAQACEQMRAD8AualKUClKUClKUClKUClKUClKUClKUClKUClKUHgr5TzKilnIUDqTyFfSoNv/AHh1JCDywWb1OcL9uf3rjny9Ok2duPhnNkinjaV2O1IZs9m4YjqB164zjyrOqnbC7aGRZE6qc+/mD6GrX2ZeLNEsi9GH1B8QfUGuPF5XWiYntMO/M4c4JiYndZZtKV5mvY8T2leZr2gUpSgUpSgUpSgUpSgUpSgUpSgUpSgUpSgUpSgUpSgUpSgUpSgUpSgUryvxJIFGSQB5k4FB+qq/fCbVeSY+UKv2Az/rUyvt6LaPI16j5L3vz6VXc8hmnZvF5CRn95uWfvWXzstbVitZ3O2t/G4b1vN7RqNNptbYxS3gmUcmQa/duat9jj7V990NtLA7JI2I2GR44Yf9R/ap5JZo8PZMO6UCkegGOXlVfSbqXPaMiLlQThyQAR4Hz6V85cGTFet8cbdMPJx58dseadftIbvfaFeUas/r8I/PnWjvd8bh/gxGPQZP3NZcW5uhS88wCgZbSM4Huf8ApUZvez1kQhtAOAScs3r9fKvjPl5MRu0638R5dONh4k21SN6+Z8NxsLblyblFLs4dgCpweR6npyx1qyai+6WwOyHayjvsO6P1Qf7nNSmvdxK3rT657yzedfHbJ9uNRH4fqlKV63jKUpQKUpQKUpQKUpQKUpQKUrT7f3itrKPXO4XPwqObsfJV6mg3FKq1+MEWe5aSFfNnVW+owRn61Kd199bW+JSMskoGTHJgMR4lcHDAelBKaUpQKUpQKUpQKUpQKUpQRLeveJoGEUXJiMsx54B6Y9etQq4u5p277NIx6Dr9gKnG9W7rTkSRkdoBgg9GA6c/A1A7i2kjbTIrIw8wR9vOsXmdWLzv2t/gdCccenXr+d+f8bmx3SuZMFgEH7x5/wCUVItm7nRRsruzOykEfKMjn06+X2qL7L3gukYKjGQHACMNX0HiKnWztsB3WGTSs5Qu0anUVUEDLcu5knkD1wfKu/Ex4L961ncfl5+bk5OPtNois/huMV4a9r8sM8q02Qr3e3b/AGrGGM9xT3iPnI8v3R+dZG52wNRFxIOQ5xqfH98+nlWj3h2b+HuGQfCe8h9CTy+nSpnubtPtYOzY96PA9156fyGKyMP18mer5jxDbz/b4kdH2z5n5SXFe0pWuxClKUClKUClKUClKUClKUClKUGs2/tRbS1luH5iNSQPM9FUe5IH1rnS8vLi9uA0hMs0rBVA6ZY91FHgoz/c1eXEyzeXZc6oMldDkeYjdHb8lNUJZXbxSRyxnDxsroeoypyM+h6fWpKwmF7wwvo4TIDFIwGWiQtr8yFJGHPpyrQ7qbIu7q4T8GGV0IbtuYSPGObNjr+51PPljNXtupvJFf24lj5MOUiHqreI9j4HxrbWtqkYKxoqAsWIUBQS3MsceJNB+4QwVQ5BbA1EDAJ8SB4DNfatJvJvFBYw9pM3M8kQc3c9cKP79BVM7d4hX1yx0yGCPwSPkcfvP1P5UR0BSuXo9sXAbUtzLqznIlY8x9am26HEmeJ1jvXMsRODIQNaZ6EkAal888xTYuylfOOQMAykEEAgjmCD0IrQb3b1w2EWpzqkYHs4x8TEeJ8lHiaokWaZrnbbO/N9csS0xjQ9I4+4o9z8Te5Nai321cI2qO5lDDoRKx/1JFTa6dQ0qpdxeI0jSLb3rA6yFjmwAdRwAsmOXP8AW9qtctgZPICqj9VjXVoki6XRWXyIz9vKqg3u4lTyStFZP2cSnHagAu+OpXI7q+Xia0+7m8m0Jb22jN3MyvPGGUsMFNYLjp00Bqk6ntKxuO8JLxC2j/4cyQWYEbyo7PL8TqAQAqFs6Qct68q+XBaItc3krElgkQLE5JMjSEkk9T+jH3rUcWbjXtNl/ZxRr9TqY/kwrb8N9qRWOzru7l5apgqD5nKRrpRR495m9udfNa1rGojULa1rd7TuU83y3ojsIC5w0rhhFHnmzDxPkoJGT6jzrWJvkyw20rIrCaCOQ6TjBYd9R7Hl9KqOea72reZwXllOFUfBGg8P3UUcyfH3OKtyPcorZ28Aly8KFSxHJix1EDyUHOPSvjP6/RPT9zrx+n646vtYu8O2Le6hBGUkXmoYdQfiXI/75Vp939om3nV/lPdceh8foedfa+3auouZj1jzTvfl1rAt9nyu4RUcsTj4SMe5PSsa9s3Ui011b+vLex048YZpFt1n9+FvowIBHQ9PrX7rGsIOzijQ/Kir/lUD+1ZNb0eO783Ot9ntKUqoUpSgUpSgUpSgUpSgUpSg/DKCMEZB6iqO4hbkmzft7dSbZj3lHMxMc8v+H5Hw6VdF1tCKJkSSRFZ2CorMAWJ6BR1PSvtNErqVdQysMFSMgg9QQeoqDmnYO2prOdZ4W7w5Mp+B18Ub+x8PuD0Ju/t6K8tluIzhSDqB6oy/Ere3nVF787vrY3jRIcxsokj81DFhoPsVPPyIrdcP75orDap+VYVbHP4nWVSfLoFoqP73bee+u3lySmrRCnXCg4XA/WY8/qKtDc3hzBBGst2izTEZ0sMxx5+VVPInzJ9aqfdbQt9adp8Anizn+IaSf5tNdM0Gp2hu7aTRmOS3iZSP1FBHqpAyp9RVDb57vfgLtoQS0ZUPET10tyKt5kEEevKukKobivtFZtoFEIIijVGIORqOXIHsGApJCccOdvBdjs8zcrXtFJ8dCDUg59TpIH2qpNoX899da3y8srqqJk4XUcJGPJRnmfc1NbG2ePdiZ8H9M+r+Quqg+xC5qP8ADlkG1LftMfEwXP65VtOPWgtPdXcC1tEVpEWafHekdQwB8o1OQoHTzOM1udq7r2lzGY5YEwejKoV1PPBVhzB51u68qo5h25sxrW5ltmOTG5UN0JHIq3oSpB5VbCbcd92nmZz2ogeMtnmWBMec+ZGD9agPEqQNta5x4dkv1Ecef9a3984j3WgXxmkX85Wc/wBKVFRHc/ZK3V9BA4zGWy46ZVFLFeXngD61e9lunYwyLLFaxI6c1ZVww5Ecj7E1UvCO21bSDfs4nb76V/5jV6k4pBLnLfq4Mm07tj4SlB7Rqqf8taWWdzGiFiUj1lF8AXOWIHmSOtfXas2ueaQnOqWU59C7YP2xUn3p3TaCys7yMZVoYxPgYw7AFJT6Nq0nywv0CyuG+wraCzSWFhK8yhnlxgn/AHYHyqpyMeYOamVUhwu3qFrN+FlbEMrDQSeSSHl7BX5Dw5486u8GiGK8xX6pVHmK9pSgUpSgUpSgUpSgUpSgUpSgVrduCb8NL+HbTNobsyQD3gMjketbKlByzPeyySdrJJI0uQdbsdalff4cEdBVjWXFyRY9MtqHkAxqWTQp9SukkfSt/vVw0hupGmhk7CRubjSGjY/rFeRVvUHnUbThDc553UQHmI3z9i1RUK27tea9uTNIMyPpREXJwATpjTxPNj7kmp5f7EbZ278qvgSzvH2gB6a2Rezz46VHP2NSzdbh/a2TCQ5mmHSSQDC5/UUclPrzPrWo41XGLOCMHm84JHmESQ//ACK0FNn/AL8P/wAqxdgcVJYoxHcxdtpGBIraWI8NQIIPhzrB4a7sw3xulnUlVSMIynDKzM5LKfPCjr5mt1dcIGz+iu+7/vI+991IB+woMLb/ABTnmQx20fYahguW1vz/AFRgBT686jG6O7Eu0Jwi5EQOZpuuB1Kg+MjZ+mc+9gbL4RxKwa5uHkH6kaiJT7tktj0GKsPZuzYbeMRQRrGg6KoAHPqfU+tEYu0tiRy2T2ajTG0WhcdFwMKR7EA/Suc7y0mtZjHIDHNEwPI8wQcq6nyOAQa6jqObzbpW1+o7VSsijCypgSD0yRhh6HIoIHsni26xhbi31uB8cbhdXqVI5H2NfqPiHcX13bW0EQhjeePWdWt2VW1uucAKCqHPj1rybhBJq7l4pX9+M6vrpbFb3dbholpOlw87ySRklAFCICVZckcy3Jj4igqfeq47S+upF+aaTH8p0Y/pqZ8RozDszZlsRghQT55iiCnP1kNbmThLG0hc3cmWdnI0JjLNqI/M1v8AfHcpdoNEWneIRKwVVVWBLlcsc/wgUVDOCUOZ7qTHSOJQf4mkJH9K/lVpbYuRHbTSN8KRSMfZVJ/tWo3M3UTZySokrSdo4YsyhSMKBjlyPTP1rb7ZsPxFtLAWKiWN0LAZIDgqSAfHBNEcxWiajGh+ZkU+eWIB+uTXT0mzY2t/wzKGjMegqehXTpx9qgVlwniimjl/FSN2ciPpMaYbQwbSceBxirLoOaN6tgvZXT2781+KNumuMnkfcdD6j1q0uFm9n4iL8JM2ZolGhicmRByB59WXkD58j41v9790otoxoHYo6NlZFALAH4k59VPL7A1HdmcLhbzRzRXsyyRtkHQmD5qQOqkZBHrRVkUrwV7VQpSlApSlApSlApSlApSlApSlApSlApSlAqtOK+xry6e3FtA0ioHLFWQYLaQB3mHgKsulBAOFGwp7WGf8REY3eUEBipJVUUA90kdc1P6UoFKUoFKUoFKUoFKUoFKUoFKUoFKUoFKUoFKVql2/aGb8OLiIzfs9Y1Z6Y9/TrQbWlKUClKUClKUClKUClKUClKUHylkVVLMQqgZJJwAB4k+FQPa3FOzjJWFZJyD1UBU+jN1HqARzrQ8ZdtuXjslJC6Q8oGRqJJCKfNeROPatbuZw+W+tfxD3DJlnVVRVbGg6cvq88ZwMciKirE3Y37tb1+zUtHLjPZuMZ89DDk3t1qTXdwscbyN8KKzN7KCT+Qqlti8NrxrxldjFHC4ImXGpyCCpiHnjqTyHTnVgcTL7sdlzDPek0xDngntDgnl46Qx+hoj4bI4kWlzNHBHHPrkOBlFAHInJ73IYFTaudNxNsQ2V4LicSFFjkCiMBjqcoBkEjlp1/lV7bv7ajvLdbiJXEbFgusAMdDFCcAnxU/aiy21Kim8G/dlZuY3kMko6xxrrZf4j8K+xOazN1t5o79HkijkRUbTl9IJOATgAnzFVG/pWt2xtm3tI+0uJVRfDPViPBVHNj6AVC7vi3Zr/AIcU0nPrpVB7jUc/lQWNSodsHiHZXbiIM0UjY0rKAoYn5VYEqT6Zz6VMaBSsa8vI4YzJK6oijLMxCqPcmoJtLivZxkrDHJNg41ABEPsW5keuKCxKVXGzeLNq7aZ4pIQSBr5SIM+LaeYH0qf2t0kqLJGyujAFWU5Ug+II60GRSvDUY3h34s7JtEkheTxjjGth/F4L9SKCUUqu7TixZM+mRJY1JxrKhlHq2kkgfQ1v9r76WNtGjvMG1rqjWPvu4IyCAvQHzOBzoJLSq6j4tWZfDRTqv62lW+pUNn7Zqb7M2jFcxLNC4dGHJh+YI6gjoQeYoNXv00w2bcG319p2fLRnWASNRXHPUF1dOdUbupsOa6u4kijbCSI0jlSFQI4ZixPzd0jHXJq9N6N6YNnrG0+s9ozBQgDN3RknBI5DI5+or87rb0QX6yNAkiqjAMXVVyzDOBhjk4wfrUEipXwublI0LyOqIoyzMQqgepPSoXfcUtnxsVQyy4z3o07nLyZyuR6jIqid0qCbO4o2EjBWMkWfmkTuA+RZSQvucCpvFIGAKkEEAgg5BB6EHxFB9KUqM7w77WVk2iWQtJ+zjHaOP4gOS/UigktKrE8X4dWBay6fPUmffGf71Ld2977S+yIXIdebRuNLgfrY8R6jNBIqUpQKUpQVRxj3fdtF9GuQi6JcdQoJKSfwgkg/xCofuPva+z5TqBeCQjtEHMg/tE9QOo8a6CkjDAqwBBGCDzBB8DVIcRty1smWeDPYO2kp17NjkgA/qHGB5Hl41FXZZ3SSxrJGwZHUFWHQg1V/Gy+/8tb58XkIx5AovP8AnblXnBXaUhM9qTmNFWRB+qXYhgPQ4z96iPEjaXbbSnPPTFiNeef8MZYj3ZjRG03M4fi/tfxDTmPMjqoCBuSHBOSfPNSzfba52Xs+G0tiBK6lAwGCqKP0koH6xY8vVs1LN0Nn/h7C3i55WME566ny7f1Map3irtHtdpyLnuwxonXIyV7RyPL41B/gorG3M3Ll2gWYOI4UJDyHvMzdSqjPM88kn86tGNIdh7NbU5kw7FcgK0kkhJVAB06dfAAmtjuDs/8AD7NtoyMN2etgeuqUl2/NsfSq84y7QL3MNvnuxx9oRn5pCVGR5hV/qNBGIo73bF4TyaUjvHmsUS/npX7lj+U5g4QxhMy3kgfTzKIioMdT3gSR9RWXunewbL2Kl26sxlOttCgszOSqJnoAAAMmolfbc2jtuU28SaY+WpEJ7NQcd6aT5v4cfQ9aCJbWtUimkjWVJURsLIh7rdOY8iCccvEcqvndXa0i7KS4vdUbJG5kZ1wSqFsPpxnJUA4xzrE3R4fW9niR8TTj52A0J/w1+X3OTWu4zX7JZxQqf8WTvdclY1LfbVpzmiK83m3guNqXSqFJQvpt4R158gzebkDJJ+H051Ktl8JZGjDXM4jc/JGofHoWPU9Og/604K7PVpbi4PNkVI09A+pnPudKj71cFBzvvnujJs50y/aRSZCSY0kMoBKuOgPUjzwfKpjwV2mxE9qfgTRInp2hYOPbIB+prK42zgW1tHz1NMzjyxHG6t+cq1ruCVr+ku5c8gsSY9y7H+33oqT8TN6GsrdY4jiabUEbroVca3x594Aep9Kq/c3dCXaTuwfREjfpJW7zM7d4hR4tggknzH0zuK9/2m0mTPdhjROuRlhrbHl8Sj+WrN4aWPY7LgyCGkUyEHr+kJYf0kUFS78bpNs54h2glSUPpOnSwKaMgjJBB1jB9DWNuhurJtCVkjIjjTSZJCMgaicKo+ZiAeXhUl4zXwe8hiB/womJGOhlYePtGPzqYcJLAR7NV8DMzu5OMZAOhc+fJfzoK8333HbZ6JIsnaxu2k5UKytgkePMEA/apDwSu213cPMxgROPJWbWrfcKv+WnGy/71tbjp35G5+WEUY/mY1suDGz9FpNOessukHPywgqP62k+9BG+Md/rvo4c8oov6piCfyRKmnCixEWzFlOkdq7yE9OXwrk+irVRby3LXV/cOgJaSZljGdXwtojA9DpB+tXFvfJ+B2I0aEjTDHAh5ZGoLGCfoc0FYb770SbRuOzj1GBX0wxgZMhzgSEfMSfhHgDUj2RwmkkjD3M/ZucHs0UPpBHRmJwT7cq1PCXZwk2iHK5WGNnHkGbuIfsX+wq96I5y3x3Xk2dOsbMHSQM0bgYJCkBgw8GGoehzVkcG9oPJZyROcrDLpTzCsquF9gScVHONF2Gu4Ih/6cTMfeVhgfaL86k/COzEWzWmbI7WSRznppTuAj0wmaK+HEvfZ7Y/hbZsTFQzvjPZq3whfDUcHzwPeoJujuRcX+ZciOEsdUj5Znb5tC/Nz6sT960N1M13dO7t3p5sk56CR8DBP6q4A9hXTFlapFGkaDCooVQMDkowOlBU+1+E0iRF7eftZBz7N1Cah4hWBOG8s8vbrVfbK2i9pcR3Cg6onyR44HKRD6ldQ966fkYAEnwGftXMEqfibpgox287afQTSHH2D5+lB1CDXteAV7VQqK8QtpXNrYtNagalZdbFdWmM5DOo6ZB09eQGT4VKq+UsYZSrAEEEEEZBB6gigoTdPfia1uHlmLzpKB2gLZfK/CyZOkcjjHIdOmKzN+eIH46EQRRNHHqDOZCpZtPNRhSQBnnnPgKmV9wos3ctG8sIPyKVZR/DqBIHpWVsfhnZQOJG1zMDle1IKj10qACfeorXcIt33hhe6kUq02kIpyDoXJDEHpkkn7VU+3YmW6uVYYYTy5B9XYjP0INdP1F96Nx7W+YSSBklAx2kZAJHgGBBDY8M9M00Mfc/fWO8ilJieP8ADoplZtJToxOgg5PJCeYHUVSVujXt4q8tVxP4g4/Svk8uuApP2q8tj7lR21pPapLLifOqQ6A4yoTu4GPhHlWDsDhtBaXKXCzSu0ZJVWCYyVK55LnoTQTeNAqhQMAAADyA5AVTfGXZrpdRXOP0ckYjz5PGXYAjwyrH/LV0VibR2fFcRtFMgdG6q3Q1UUfu5vjHHaPYXsTy27ZCGMgOoY5KnJHIHmCDkdK3N1xKhhg7DZtr2WAQrOFVVz8wRSSx8e9itre8I4CSYbiVBn4W0vgeQJGT9TWZsvhVZxsGleSbGDpYhEz6hACw9CfCorW8Ktr7RndxKxltgWJlk+IOSSVjYfGMnmOi9BjpWXxl2Y8lrHOgyIZCX9EdcFvYNpzVhW8CRoERQqKMKqgAAeQAr2SMMCGAIIIIPMEHqD6URztufvRJs+YyIoeOQKJYycZCk4ZT4MMn0OasD/a5E2FS1m7RiqqGaMJqchRlgxOMnrisna3Cm1kYtBJJDn5Bh4x/CGGVHoDTYHC6GCWOaSZ5HjcOq4VUyvNcjGTg+tFRPi9tDtL5I/2MS5wcgNIdRHoQFX7ip1wss+x2WkjZHaF5TnHwn4Ty/cUGsXbHDGC5uJZ3uJg0rEsFEeByCgDu55ACpe+y1FqbWImNOyMalcakBXSCueWR1ojniZzeX5IwfxF0APAESSBVPtoIrpO3hVEVFGFVQoHkFGAPsKhGweGlvaXEdws0rmMkqrCMLkqy88LnkGNTmVcqQDjIIz5Z8aDnHfC7e62jcMmSWl7OMHHyYjUexYZ+tdBbEsRb2sMIziOJE59e4oHPHjyqHbN4XW8U8c3bSvocPpYR6SQcjOFB686sCg564k7Q7bac5HMRaY1x/ux3hjz1sw+lWjYn/wAP2CGOA8drqPLkZJFyAf53ArBfhZA05ma4mYmUyMCI+ZL6yCdOcZqV7y7DW9tmt3d41YqSUxnukHHMEYyBRVG8PNn9ttO3Q4IQmRs+IjXI+uspU2417QwlvbgjLM8jDxwgCr+bH7VJd1NxobCV5UlkkZk098IABnORpA58q/G9W4kd/OJpJ5UKoECqEKgAkkjUpOST+VEaXgts/TbzznGZJQgPjpiUZB/mZqsutZu/shLO2S3RiyoD3mxqOSSScADxrYSDIIBxkdfL1qjnHfnaPb7QuZBzAdkTAIyIu4PzBq+NjbJEWz4rXppgVGI8yuHIz5sSai1lwsgjmSU3ErFXDkER4YhtXPC+JqwsVByxdWrwSPE4KSQuVPmCh5MPTkCD0ORVnbJ4thY1W6t5HkHIvEU0t66WYFT5jpU23k3OtL4hpkIkAwJEOl8c8A+DDn0IqMf7Ibf/ANzNj2j/APrRXl/xA/EbNvZo4TGqFIk1sNTPLgH4cgaVbV1NQnhjs7tdpQnB0xBpGI6DSpVM/wAzD7V9N9pLa3Vdm2bM8ccjSTsW1apSqoFz0OlV5jGBkeoEu4NbHKRS3bLjtSEjJHMonVh6FyffSKC0KUpVQpSlApSlApSlApSlApSlApSlApSlApSlApSlApSlApSlApSlApSlApSlArw17SgoLa2/16t5cmC50x9s4VMJIoVDoBGtcgHRqxy61rL3fDaFyDE91I4OcpGEUn0xGoYj0q/rvYdrKcyW8TnzZFJ/0r72uzoY/wDDijT+FVX/AEFTS7U7ufw0lmYSXitFCOkWdMr+h/Zp5/MfSrnghVEVEAVVACqBgADkAB5V9qVUKUpQKUpQKUpQKUpQKUpQKUpQKUpQKUpQKUpQKUpQKUpQKUpQKUpQKUpQKUpQKUpQKUpQKUpQKUpQf//Z;" vertex="1" parent="1">
          <mxGeometry x="1902.1" y="750" width="158.99" height="100" as="geometry" />
        </mxCell>
        <mxCell id="X08TphvUrJ8iC7uKPG2M-5" value="" style="shape=image;verticalLabelPosition=bottom;labelBackgroundColor=default;verticalAlign=top;aspect=fixed;imageAspect=0;image=data:image/png,iVBORw0KGgoAAAANSUhEUgAAAOEAAADhCAMAAAAJbSJIAAAAw1BMVEX/////zDszbJn/yzYtapf+ySb8////zTr812MdYI9ch6tdhar91lz9zSxvka/f5+392W7M2eD78cv99t4jZpVVgqMjZpP///z+yi91kqn91V381mTT3+gva5Yuapm6y9jv9Pf93X38++/13HX+z0aswc+Do711mbc7cJh+mrRhh6bI1d1Ke6EgYY6ZssR6n76mvNCOp73m7fP74Y385J/96Kz67L784Ib+6bVmiqX9+OP89db60k62ydj822389dj+2oNcWN3GAAAHGElEQVR4nO2ci1biOhRAW/qIBcrLSHNBQkHAF3JHEcXB0fn/r5qklRGFpinQtJ11NktHGGRlr5M0ac6JmgYAAAAAAAAAAAAAAAAAAAAAAAAAAAAAAAAAAAAAAAAAAABsYDfHk1r57KxSOQv4+IdTvpmMz7Nu36GcX7cxNik1TWr2aKnXo5T2euwZ/05Nip32pMiSzTPHLNGSGOycNbNu6J74lw63izNk73Au/awbuw/NKxzrtsYsFTCMfXk/Hkbcz7rBSenjXhLD4ik240ffd3ChOqp/ZQaBcTiysld+1s1OwHUwCPHNra3Z/ankiMTXWTdbnuZd0OIZ+9FjXxNJRac4/fSGfg3Ji1xHpeUM25yIc4e3985ni9KPF2SDWJQF3CRYylTWfkx0KhnESZbNToBZYnMh/X/jFcluWqKZtTkR9aCT0svPGIYDU6ab1jNstzzjcNT1Pl/xr+QES3icXbMTcB8aOp/LsB+ya1R6n2G75amFXdL8u0apSy/haC3LhktTNj+aOw0v/rcSt4hrw2LMiGtDdr9Qm41nNwluo4pi+BkyirFpCoyKb5gUMMwJYFh8w8o/bzh1RPwLhnURD+1/wFAMGOYQ/3Z2fVOuSCK+0ObQ0B+XHafNc2eSiK+zgeG82gk4aQwen4Z2bBtS9ZtRvP/UEGV4QQwUPAyDWFZ3McxOsJ8gu5TE0NA3MCx9npGjLbvRe5ihriMyespC0K8lSy7tb8ji6D57ygVt2e2zYxiyMHaV99Ta8buowFDX3RPFUZyJ15f7YkYa6uRNqWI9HUFBDHXdelRpeMAtoNiQ7yY2dhsi912d4G1KISzhe03zOrsN2VBUt75J5ToaGI41bTjaLcj6aUuV4ENaIQwyM6cERRiiqirD8V1ahib79KUVZaiTn4oMZbOBicE8Q/o7Moa6u1AjaMvmyhLDs9xDFCmoo64aw4e0Qkhf2Kc/WZGCOhqpmfXP0zLkIbQbRnQMdVfNQGwmLFmTJRiFLUvUS8lKjWE7FUM69QXTfWjoqpkRm6ncVpQwz6cuBKOQ91JFhsINwX1x+pqn/SS6YBSqMzx+DHu0fcs+2XsV9dFCxxBf1VkEvQERCxY2hiae+Oxz4wWLaUgxrvFrjD0cuMIxmGdDGrEjzuQcZ3of1qScVmOuMnk15KdippXaTi6vZ7/qH3e1C0QEU31uDalzdzmu217sarJVdZGEYN4MTWf6S2bfwVtW2VKtgIbO2W3wdi5p70bzvPflm0tEi+3cGlLzR/hu7+dy/jxo7KT76loWm+RlBfNkiM+CWljvff7quoRFKUiWbeLyb0HPlOmeuTPE4WG0VoMQHiLugHT0FX0tJy+YH0N87bGh5z27McvMxOTFENf4/HA6chP0v3wZxqy86ZRfPltyM1w+DWNi2H5g08MTSUEwJ4Z3vN5+lYafQkPRPg2dajz3kIafrhM1huJTTMEBtHn0vvVBKIqhcEc4yHG23FT8WAzV7CYKd/WdPpsJ3+LvZfdD0Y6wMH3Y8zX7XbSrexCKdvVFh3z4sUp7bqRkaCjKzGgPAsNf7P+TrDQTQRRl1zZOxWwPQ57EFe9bH4ClKkMqqFTgp7kWKU0VrJOqK1WIKsenFZsNw9htzz1RV6mgafWITD59YYZvx75n+sBQVqjAiaj6ov/F5Tj3B7mnKg0jKveYoW2fpGOotuqLRWpn4RePoVZNo5cicqG6xNR/2RFFHkOtmkYIMygw1ez77b9aEozD6vFXNIg0Mqn13q5kD3rp8cehQebqq6AD/FkJbxtWj2yIrNFTdqcu/HH5zsGY0jCDho9vaFjoMcMTFwzP78+uazflkPt4Q0MeQiyrs8zWbxs7xhB1uycn3b+PjR+/P+12B4+tjE8F7SbGUL7JPDuVS8SGBn+L/fVr82kRiInhqZBQNHzklpgrjSXiNcdenxwwWxgdMMwFYAiG+SeRISJko9hE5W7aASS4x0ek+7h4bBjr3yiIofz9IQoP+HqrV1Qow4bsjjByV3zl4vGMahhFo1EIQ+n06EYaohX+DpkXwnARfTTrWww/7/zscG+HLDNstzzvkhlgo7ux+TIIDK3TQsTQk9xr+zLoBmGFW0YbTkl5lpsujNcNnw43JM/ZNToRK8kE4kbdwZCPXaQyuXQQ9olkN/07EO2gkxoKjzIfSEs2iB+90n4MJgtF9UBHIf5sSIj7+jTUhq2Gy6tP3UHWzU7Aeo0SB0LB3kXwZjTK28aokFbymiGkpt7pWPDqy2R+biZ/ZecQlolKoI3iCbKOOpKvySCjla0VZD2zwfDCklzcWBeFush8Yrc6VvxwJFanQPPgFqvfyCIkKnuGiOsav4t1Dd3C1laL58ZJp9rpVL/TaTwvV3nOTyQgr2kyAAAAAAAAAAAAAAAAAAAAAAAAAAAAAAAAAAAAAAAAAACKxx8ZjrJGDmPECgAAAABJRU5ErkJggg==;" vertex="1" parent="1">
          <mxGeometry x="477" y="750" width="100" height="100" as="geometry" />
        </mxCell>
        <mxCell id="X08TphvUrJ8iC7uKPG2M-7" value="&lt;p style=&quot;line-height: 190%;&quot;&gt;&lt;font face=&quot;Times New Roman&quot; style=&quot;font-size: 20px;&quot;&gt;ingestion_container&lt;/font&gt;&lt;/p&gt;" style="rounded=0;whiteSpace=wrap;html=1;fillColor=#ffe6cc;strokeColor=#d79b00;" vertex="1" parent="1">
          <mxGeometry x="400" y="880" width="260" height="50" as="geometry" />
        </mxCell>
        <mxCell id="X08TphvUrJ8iC7uKPG2M-9" value="" style="image;sketch=0;aspect=fixed;html=1;points=[];align=center;fontSize=12;image=img/lib/mscae/Docker.svg;" vertex="1" parent="1">
          <mxGeometry x="1172.12" y="630" width="109.76" height="90" as="geometry" />
        </mxCell>
        <mxCell id="X08TphvUrJ8iC7uKPG2M-10" value="" style="shape=image;verticalLabelPosition=bottom;labelBackgroundColor=default;verticalAlign=top;aspect=fixed;imageAspect=0;image=data:image/png,iVBORw0KGgoAAAANSUhEUgAAAOEAAADhCAMAAAAJbSJIAAAAw1BMVEX/////zDszbJn/yzYtapf+ySb8////zTr812MdYI9ch6tdhar91lz9zSxvka/f5+392W7M2eD78cv99t4jZpVVgqMjZpP///z+yi91kqn91V381mTT3+gva5Yuapm6y9jv9Pf93X38++/13HX+z0aswc+Do711mbc7cJh+mrRhh6bI1d1Ke6EgYY6ZssR6n76mvNCOp73m7fP74Y385J/96Kz67L784Ib+6bVmiqX9+OP89db60k62ydj822389dj+2oNcWN3GAAAHGElEQVR4nO2ci1biOhRAW/qIBcrLSHNBQkHAF3JHEcXB0fn/r5qklRGFpinQtJ11NktHGGRlr5M0ac6JmgYAAAAAAAAAAAAAAAAAAAAAAAAAAAAAAAAAAAAAAAAAAABsYDfHk1r57KxSOQv4+IdTvpmMz7Nu36GcX7cxNik1TWr2aKnXo5T2euwZ/05Nip32pMiSzTPHLNGSGOycNbNu6J74lw63izNk73Au/awbuw/NKxzrtsYsFTCMfXk/Hkbcz7rBSenjXhLD4ik240ffd3ChOqp/ZQaBcTiysld+1s1OwHUwCPHNra3Z/ankiMTXWTdbnuZd0OIZ+9FjXxNJRac4/fSGfg3Ji1xHpeUM25yIc4e3985ni9KPF2SDWJQF3CRYylTWfkx0KhnESZbNToBZYnMh/X/jFcluWqKZtTkR9aCT0svPGIYDU6ab1jNstzzjcNT1Pl/xr+QES3icXbMTcB8aOp/LsB+ya1R6n2G75amFXdL8u0apSy/haC3LhktTNj+aOw0v/rcSt4hrw2LMiGtDdr9Qm41nNwluo4pi+BkyirFpCoyKb5gUMMwJYFh8w8o/bzh1RPwLhnURD+1/wFAMGOYQ/3Z2fVOuSCK+0ObQ0B+XHafNc2eSiK+zgeG82gk4aQwen4Z2bBtS9ZtRvP/UEGV4QQwUPAyDWFZ3McxOsJ8gu5TE0NA3MCx9npGjLbvRe5ihriMyespC0K8lSy7tb8ji6D57ygVt2e2zYxiyMHaV99Ta8buowFDX3RPFUZyJ15f7YkYa6uRNqWI9HUFBDHXdelRpeMAtoNiQ7yY2dhsi912d4G1KISzhe03zOrsN2VBUt75J5ToaGI41bTjaLcj6aUuV4ENaIQwyM6cERRiiqirD8V1ahib79KUVZaiTn4oMZbOBicE8Q/o7Moa6u1AjaMvmyhLDs9xDFCmoo64aw4e0Qkhf2Kc/WZGCOhqpmfXP0zLkIbQbRnQMdVfNQGwmLFmTJRiFLUvUS8lKjWE7FUM69QXTfWjoqpkRm6ncVpQwz6cuBKOQ91JFhsINwX1x+pqn/SS6YBSqMzx+DHu0fcs+2XsV9dFCxxBf1VkEvQERCxY2hiae+Oxz4wWLaUgxrvFrjD0cuMIxmGdDGrEjzuQcZ3of1qScVmOuMnk15KdippXaTi6vZ7/qH3e1C0QEU31uDalzdzmu217sarJVdZGEYN4MTWf6S2bfwVtW2VKtgIbO2W3wdi5p70bzvPflm0tEi+3cGlLzR/hu7+dy/jxo7KT76loWm+RlBfNkiM+CWljvff7quoRFKUiWbeLyb0HPlOmeuTPE4WG0VoMQHiLugHT0FX0tJy+YH0N87bGh5z27McvMxOTFENf4/HA6chP0v3wZxqy86ZRfPltyM1w+DWNi2H5g08MTSUEwJ4Z3vN5+lYafQkPRPg2dajz3kIafrhM1huJTTMEBtHn0vvVBKIqhcEc4yHG23FT8WAzV7CYKd/WdPpsJ3+LvZfdD0Y6wMH3Y8zX7XbSrexCKdvVFh3z4sUp7bqRkaCjKzGgPAsNf7P+TrDQTQRRl1zZOxWwPQ57EFe9bH4ClKkMqqFTgp7kWKU0VrJOqK1WIKsenFZsNw9htzz1RV6mgafWITD59YYZvx75n+sBQVqjAiaj6ov/F5Tj3B7mnKg0jKveYoW2fpGOotuqLRWpn4RePoVZNo5cicqG6xNR/2RFFHkOtmkYIMygw1ez77b9aEozD6vFXNIg0Mqn13q5kD3rp8cehQebqq6AD/FkJbxtWj2yIrNFTdqcu/HH5zsGY0jCDho9vaFjoMcMTFwzP78+uazflkPt4Q0MeQiyrs8zWbxs7xhB1uycn3b+PjR+/P+12B4+tjE8F7SbGUL7JPDuVS8SGBn+L/fVr82kRiInhqZBQNHzklpgrjSXiNcdenxwwWxgdMMwFYAiG+SeRISJko9hE5W7aASS4x0ek+7h4bBjr3yiIofz9IQoP+HqrV1Qow4bsjjByV3zl4vGMahhFo1EIQ+n06EYaohX+DpkXwnARfTTrWww/7/zscG+HLDNstzzvkhlgo7ux+TIIDK3TQsTQk9xr+zLoBmGFW0YbTkl5lpsujNcNnw43JM/ZNToRK8kE4kbdwZCPXaQyuXQQ9olkN/07EO2gkxoKjzIfSEs2iB+90n4MJgtF9UBHIf5sSIj7+jTUhq2Gy6tP3UHWzU7Aeo0SB0LB3kXwZjTK28aokFbymiGkpt7pWPDqy2R+biZ/ZecQlolKoI3iCbKOOpKvySCjla0VZD2zwfDCklzcWBeFush8Yrc6VvxwJFanQPPgFqvfyCIkKnuGiOsav4t1Dd3C1laL58ZJp9rpVL/TaTwvV3nOTyQgr2kyAAAAAAAAAAAAAAAAAAAAAAAAAAAAAAAAAAAAAAAAAACKxx8ZjrJGDmPECgAAAABJRU5ErkJggg==;" vertex="1" parent="1">
          <mxGeometry x="1177" y="750" width="100" height="100" as="geometry" />
        </mxCell>
        <mxCell id="X08TphvUrJ8iC7uKPG2M-11" value="&lt;p style=&quot;line-height: 190%;&quot;&gt;&lt;font face=&quot;Times New Roman&quot; style=&quot;font-size: 20px;&quot;&gt;move_landing_to_raw_container&lt;/font&gt;&lt;/p&gt;" style="rounded=0;whiteSpace=wrap;html=1;fillColor=#ffe6cc;strokeColor=#d79b00;" vertex="1" parent="1">
          <mxGeometry x="1085.5" y="873" width="283" height="70" as="geometry" />
        </mxCell>
        <mxCell id="X08TphvUrJ8iC7uKPG2M-12" value="" style="dashed=0;outlineConnect=0;html=1;align=center;labelPosition=center;verticalLabelPosition=bottom;verticalAlign=top;shape=mxgraph.weblogos.json" vertex="1" parent="1">
          <mxGeometry x="815" y="699.1" width="70" height="75.8" as="geometry" />
        </mxCell>
        <mxCell id="X08TphvUrJ8iC7uKPG2M-13" value="" style="endArrow=classic;html=1;rounded=0;exitX=1;exitY=0.5;exitDx=0;exitDy=0;entryX=0;entryY=0.5;entryDx=0;entryDy=0;entryPerimeter=0;strokeColor=#0d1e72;dashed=1;strokeWidth=2;" edge="1" parent="1" source="X08TphvUrJ8iC7uKPG2M-3" target="X08TphvUrJ8iC7uKPG2M-14">
          <mxGeometry width="50" height="50" relative="1" as="geometry">
            <mxPoint x="830" y="710" as="sourcePoint" />
            <mxPoint x="760" y="740" as="targetPoint" />
          </mxGeometry>
        </mxCell>
        <mxCell id="X08TphvUrJ8iC7uKPG2M-18" value="&lt;font style=&quot;font-size: 25px;&quot;&gt;write&lt;/font&gt;" style="edgeLabel;html=1;align=center;verticalAlign=middle;resizable=0;points=[];" vertex="1" connectable="0" parent="X08TphvUrJ8iC7uKPG2M-13">
          <mxGeometry x="-0.194" y="-1" relative="1" as="geometry">
            <mxPoint x="10" y="-8" as="offset" />
          </mxGeometry>
        </mxCell>
        <mxCell id="X08TphvUrJ8iC7uKPG2M-16" value="&lt;p style=&quot;line-height: 190%;&quot;&gt;&lt;span style=&quot;font-size: 20px;&quot;&gt;&lt;font face=&quot;Times New Roman&quot;&gt;./data/landing/&lt;/font&gt;&lt;/span&gt;&lt;/p&gt;" style="rounded=0;whiteSpace=wrap;html=1;fillColor=#ffe6cc;strokeColor=#d79b00;" vertex="1" parent="1">
          <mxGeometry x="770" y="850" width="190" height="40" as="geometry" />
        </mxCell>
        <mxCell id="X08TphvUrJ8iC7uKPG2M-17" value="" style="endArrow=classic;html=1;rounded=0;exitX=1;exitY=0.5;exitDx=0;exitDy=0;entryX=0;entryY=0.5;entryDx=0;entryDy=0;entryPerimeter=0;strokeColor=#0d1e72;dashed=1;strokeWidth=2;" edge="1" parent="1" source="X08TphvUrJ8iC7uKPG2M-14">
          <mxGeometry width="50" height="50" relative="1" as="geometry">
            <mxPoint x="980" y="736.38" as="sourcePoint" />
            <mxPoint x="1096" y="736.38" as="targetPoint" />
          </mxGeometry>
        </mxCell>
        <mxCell id="X08TphvUrJ8iC7uKPG2M-19" value="&lt;font style=&quot;font-size: 25px;&quot;&gt;write&lt;/font&gt;" style="edgeLabel;html=1;align=center;verticalAlign=middle;resizable=0;points=[];" vertex="1" connectable="0" parent="1">
          <mxGeometry x="710" y="730" as="geometry">
            <mxPoint x="309" y="-1" as="offset" />
          </mxGeometry>
        </mxCell>
        <mxCell id="X08TphvUrJ8iC7uKPG2M-20" value="" style="whiteSpace=wrap;html=1;aspect=fixed;fillColor=none;dashed=1;strokeColor=#0b1da2;strokeWidth=4;" vertex="1" parent="1">
          <mxGeometry x="1473" y="630" width="180" height="180" as="geometry" />
        </mxCell>
        <mxCell id="X08TphvUrJ8iC7uKPG2M-21" value="" style="dashed=0;outlineConnect=0;html=1;align=center;labelPosition=center;verticalLabelPosition=bottom;verticalAlign=top;shape=mxgraph.weblogos.json" vertex="1" parent="1">
          <mxGeometry x="1518" y="682.1" width="70" height="75.8" as="geometry" />
        </mxCell>
        <mxCell id="X08TphvUrJ8iC7uKPG2M-22" value="" style="endArrow=classic;html=1;rounded=0;exitX=1;exitY=0.5;exitDx=0;exitDy=0;entryX=0;entryY=0.5;entryDx=0;entryDy=0;entryPerimeter=0;strokeColor=#0d1e72;dashed=1;strokeWidth=2;" edge="1" parent="1" target="X08TphvUrJ8iC7uKPG2M-20">
          <mxGeometry width="50" height="50" relative="1" as="geometry">
            <mxPoint x="1357" y="720" as="sourcePoint" />
            <mxPoint x="1463" y="723" as="targetPoint" />
          </mxGeometry>
        </mxCell>
        <mxCell id="X08TphvUrJ8iC7uKPG2M-23" value="&lt;font style=&quot;font-size: 25px;&quot;&gt;write&lt;/font&gt;" style="edgeLabel;html=1;align=center;verticalAlign=middle;resizable=0;points=[];" vertex="1" connectable="0" parent="X08TphvUrJ8iC7uKPG2M-22">
          <mxGeometry x="-0.194" y="-1" relative="1" as="geometry">
            <mxPoint x="10" y="-8" as="offset" />
          </mxGeometry>
        </mxCell>
        <mxCell id="X08TphvUrJ8iC7uKPG2M-24" value="&lt;p style=&quot;line-height: 190%;&quot;&gt;&lt;span style=&quot;font-size: 20px;&quot;&gt;&lt;font face=&quot;Times New Roman&quot;&gt;./data/raw/&lt;/font&gt;&lt;/span&gt;&lt;/p&gt;" style="rounded=0;whiteSpace=wrap;html=1;fillColor=#ffe6cc;strokeColor=#d79b00;" vertex="1" parent="1">
          <mxGeometry x="1473" y="833" width="197" height="37" as="geometry" />
        </mxCell>
        <mxCell id="X08TphvUrJ8iC7uKPG2M-45" value="" style="image;sketch=0;aspect=fixed;html=1;points=[];align=center;fontSize=12;image=img/lib/mscae/Docker.svg;" vertex="1" parent="1">
          <mxGeometry x="1888" y="620" width="109.76" height="90" as="geometry" />
        </mxCell>
        <mxCell id="X08TphvUrJ8iC7uKPG2M-46" value="" style="shape=image;verticalLabelPosition=bottom;labelBackgroundColor=default;verticalAlign=top;aspect=fixed;imageAspect=0;image=data:image/png,iVBORw0KGgoAAAANSUhEUgAAAOEAAADhCAMAAAAJbSJIAAAAw1BMVEX/////zDszbJn/yzYtapf+ySb8////zTr812MdYI9ch6tdhar91lz9zSxvka/f5+392W7M2eD78cv99t4jZpVVgqMjZpP///z+yi91kqn91V381mTT3+gva5Yuapm6y9jv9Pf93X38++/13HX+z0aswc+Do711mbc7cJh+mrRhh6bI1d1Ke6EgYY6ZssR6n76mvNCOp73m7fP74Y385J/96Kz67L784Ib+6bVmiqX9+OP89db60k62ydj822389dj+2oNcWN3GAAAHGElEQVR4nO2ci1biOhRAW/qIBcrLSHNBQkHAF3JHEcXB0fn/r5qklRGFpinQtJ11NktHGGRlr5M0ac6JmgYAAAAAAAAAAAAAAAAAAAAAAAAAAAAAAAAAAAAAAAAAAABsYDfHk1r57KxSOQv4+IdTvpmMz7Nu36GcX7cxNik1TWr2aKnXo5T2euwZ/05Nip32pMiSzTPHLNGSGOycNbNu6J74lw63izNk73Au/awbuw/NKxzrtsYsFTCMfXk/Hkbcz7rBSenjXhLD4ik240ffd3ChOqp/ZQaBcTiysld+1s1OwHUwCPHNra3Z/ankiMTXWTdbnuZd0OIZ+9FjXxNJRac4/fSGfg3Ji1xHpeUM25yIc4e3985ni9KPF2SDWJQF3CRYylTWfkx0KhnESZbNToBZYnMh/X/jFcluWqKZtTkR9aCT0svPGIYDU6ab1jNstzzjcNT1Pl/xr+QES3icXbMTcB8aOp/LsB+ya1R6n2G75amFXdL8u0apSy/haC3LhktTNj+aOw0v/rcSt4hrw2LMiGtDdr9Qm41nNwluo4pi+BkyirFpCoyKb5gUMMwJYFh8w8o/bzh1RPwLhnURD+1/wFAMGOYQ/3Z2fVOuSCK+0ObQ0B+XHafNc2eSiK+zgeG82gk4aQwen4Z2bBtS9ZtRvP/UEGV4QQwUPAyDWFZ3McxOsJ8gu5TE0NA3MCx9npGjLbvRe5ihriMyespC0K8lSy7tb8ji6D57ygVt2e2zYxiyMHaV99Ta8buowFDX3RPFUZyJ15f7YkYa6uRNqWI9HUFBDHXdelRpeMAtoNiQ7yY2dhsi912d4G1KISzhe03zOrsN2VBUt75J5ToaGI41bTjaLcj6aUuV4ENaIQwyM6cERRiiqirD8V1ahib79KUVZaiTn4oMZbOBicE8Q/o7Moa6u1AjaMvmyhLDs9xDFCmoo64aw4e0Qkhf2Kc/WZGCOhqpmfXP0zLkIbQbRnQMdVfNQGwmLFmTJRiFLUvUS8lKjWE7FUM69QXTfWjoqpkRm6ncVpQwz6cuBKOQ91JFhsINwX1x+pqn/SS6YBSqMzx+DHu0fcs+2XsV9dFCxxBf1VkEvQERCxY2hiae+Oxz4wWLaUgxrvFrjD0cuMIxmGdDGrEjzuQcZ3of1qScVmOuMnk15KdippXaTi6vZ7/qH3e1C0QEU31uDalzdzmu217sarJVdZGEYN4MTWf6S2bfwVtW2VKtgIbO2W3wdi5p70bzvPflm0tEi+3cGlLzR/hu7+dy/jxo7KT76loWm+RlBfNkiM+CWljvff7quoRFKUiWbeLyb0HPlOmeuTPE4WG0VoMQHiLugHT0FX0tJy+YH0N87bGh5z27McvMxOTFENf4/HA6chP0v3wZxqy86ZRfPltyM1w+DWNi2H5g08MTSUEwJ4Z3vN5+lYafQkPRPg2dajz3kIafrhM1huJTTMEBtHn0vvVBKIqhcEc4yHG23FT8WAzV7CYKd/WdPpsJ3+LvZfdD0Y6wMH3Y8zX7XbSrexCKdvVFh3z4sUp7bqRkaCjKzGgPAsNf7P+TrDQTQRRl1zZOxWwPQ57EFe9bH4ClKkMqqFTgp7kWKU0VrJOqK1WIKsenFZsNw9htzz1RV6mgafWITD59YYZvx75n+sBQVqjAiaj6ov/F5Tj3B7mnKg0jKveYoW2fpGOotuqLRWpn4RePoVZNo5cicqG6xNR/2RFFHkOtmkYIMygw1ez77b9aEozD6vFXNIg0Mqn13q5kD3rp8cehQebqq6AD/FkJbxtWj2yIrNFTdqcu/HH5zsGY0jCDho9vaFjoMcMTFwzP78+uazflkPt4Q0MeQiyrs8zWbxs7xhB1uycn3b+PjR+/P+12B4+tjE8F7SbGUL7JPDuVS8SGBn+L/fVr82kRiInhqZBQNHzklpgrjSXiNcdenxwwWxgdMMwFYAiG+SeRISJko9hE5W7aASS4x0ek+7h4bBjr3yiIofz9IQoP+HqrV1Qow4bsjjByV3zl4vGMahhFo1EIQ+n06EYaohX+DpkXwnARfTTrWww/7/zscG+HLDNstzzvkhlgo7ux+TIIDK3TQsTQk9xr+zLoBmGFW0YbTkl5lpsujNcNnw43JM/ZNToRK8kE4kbdwZCPXaQyuXQQ9olkN/07EO2gkxoKjzIfSEs2iB+90n4MJgtF9UBHIf5sSIj7+jTUhq2Gy6tP3UHWzU7Aeo0SB0LB3kXwZjTK28aokFbymiGkpt7pWPDqy2R+biZ/ZecQlolKoI3iCbKOOpKvySCjla0VZD2zwfDCklzcWBeFush8Yrc6VvxwJFanQPPgFqvfyCIkKnuGiOsav4t1Dd3C1laL58ZJp9rpVL/TaTwvV3nOTyQgr2kyAAAAAAAAAAAAAAAAAAAAAAAAAAAAAAAAAAAAAAAAAACKxx8ZjrJGDmPECgAAAABJRU5ErkJggg==;" vertex="1" parent="1">
          <mxGeometry x="1830" y="757.9" width="72.1" height="72.1" as="geometry" />
        </mxCell>
        <mxCell id="X08TphvUrJ8iC7uKPG2M-47" value="&lt;p style=&quot;line-height: 190%;&quot;&gt;&lt;font face=&quot;Times New Roman&quot; style=&quot;font-size: 20px;&quot;&gt;ed-pyspark-jupyter&lt;/font&gt;&lt;/p&gt;" style="rounded=0;whiteSpace=wrap;html=1;fillColor=#ffe6cc;strokeColor=#d79b00;" vertex="1" parent="1">
          <mxGeometry x="1817.76" y="890" width="260" height="50" as="geometry" />
        </mxCell>
        <mxCell id="X08TphvUrJ8iC7uKPG2M-48" value="" style="endArrow=classic;html=1;rounded=0;exitX=1;exitY=0.5;exitDx=0;exitDy=0;entryX=0;entryY=0.5;entryDx=0;entryDy=0;entryPerimeter=0;strokeColor=#0d1e72;dashed=1;strokeWidth=2;" edge="1" parent="1">
          <mxGeometry width="50" height="50" relative="1" as="geometry">
            <mxPoint x="1661" y="767" as="sourcePoint" />
            <mxPoint x="1807" y="766.38" as="targetPoint" />
          </mxGeometry>
        </mxCell>
        <mxCell id="X08TphvUrJ8iC7uKPG2M-49" value="&lt;font style=&quot;font-size: 25px;&quot;&gt;Read&lt;/font&gt;" style="edgeLabel;html=1;align=center;verticalAlign=middle;resizable=0;points=[];" vertex="1" connectable="0" parent="1">
          <mxGeometry x="1421" y="760" as="geometry">
            <mxPoint x="309" y="-1" as="offset" />
          </mxGeometry>
        </mxCell>
        <mxCell id="X08TphvUrJ8iC7uKPG2M-50" value="" style="whiteSpace=wrap;html=1;aspect=fixed;fillColor=none;dashed=1;strokeWidth=4;strokeColor=#040876;" vertex="1" parent="1">
          <mxGeometry x="1103" y="610" width="254" height="254" as="geometry" />
        </mxCell>
        <mxCell id="X08TphvUrJ8iC7uKPG2M-52" value="&lt;p style=&quot;line-height: 190%;&quot;&gt;&lt;span style=&quot;font-size: 20px;&quot;&gt;&lt;font face=&quot;Times New Roman&quot;&gt;Shared Volume&lt;/font&gt;&lt;/span&gt;&lt;/p&gt;" style="rounded=0;whiteSpace=wrap;html=1;fillColor=#fff2cc;strokeColor=#d6b656;" vertex="1" parent="1">
          <mxGeometry x="792.5" y="658.5" width="135" height="33" as="geometry" />
        </mxCell>
        <mxCell id="X08TphvUrJ8iC7uKPG2M-55" value="&lt;p style=&quot;line-height: 190%;&quot;&gt;&lt;span style=&quot;font-size: 20px;&quot;&gt;&lt;font face=&quot;Times New Roman&quot;&gt;Shared Volume&lt;/font&gt;&lt;/span&gt;&lt;/p&gt;" style="rounded=0;whiteSpace=wrap;html=1;fillColor=#fff2cc;strokeColor=#d6b656;" vertex="1" parent="1">
          <mxGeometry x="1495.5" y="640" width="135" height="33" as="geometry" />
        </mxCell>
        <mxCell id="X08TphvUrJ8iC7uKPG2M-57" value="" style="endArrow=classic;html=1;rounded=0;strokeColor=#0d1e72;dashed=1;strokeWidth=2;" edge="1" parent="1">
          <mxGeometry width="50" height="50" relative="1" as="geometry">
            <mxPoint x="2070" y="630" as="sourcePoint" />
            <mxPoint x="2200" y="630" as="targetPoint" />
            <Array as="points" />
          </mxGeometry>
        </mxCell>
        <mxCell id="X08TphvUrJ8iC7uKPG2M-58" value="&lt;font style=&quot;font-size: 25px;&quot;&gt;write&lt;/font&gt;" style="edgeLabel;html=1;align=center;verticalAlign=middle;resizable=0;points=[];" vertex="1" connectable="0" parent="1">
          <mxGeometry x="1817.76" y="620" as="geometry">
            <mxPoint x="309" y="-1" as="offset" />
          </mxGeometry>
        </mxCell>
        <mxCell id="X08TphvUrJ8iC7uKPG2M-59" value="&lt;font style=&quot;font-size: 20px;&quot;&gt;runtime_logs/checkpoint/&lt;/font&gt;" style="rounded=0;whiteSpace=wrap;html=1;fillColor=#ffe6cc;strokeColor=#d79b00;" vertex="1" parent="1">
          <mxGeometry x="2210" y="647" width="250" height="65" as="geometry" />
        </mxCell>
        <mxCell id="X08TphvUrJ8iC7uKPG2M-60" value="" style="endArrow=classic;html=1;rounded=0;strokeColor=#0d1e72;dashed=1;strokeWidth=2;entryX=0.006;entryY=0.793;entryDx=0;entryDy=0;entryPerimeter=0;" edge="1" parent="1" target="X08TphvUrJ8iC7uKPG2M-64">
          <mxGeometry width="50" height="50" relative="1" as="geometry">
            <mxPoint x="2065.24" y="735.8" as="sourcePoint" />
            <mxPoint x="2190" y="727" as="targetPoint" />
            <Array as="points">
              <mxPoint x="2120" y="736" />
              <mxPoint x="2120" y="800" />
            </Array>
          </mxGeometry>
        </mxCell>
        <mxCell id="X08TphvUrJ8iC7uKPG2M-61" value="&lt;font style=&quot;font-size: 20px;&quot;&gt;runtime_logs/archived/&lt;/font&gt;" style="rounded=0;whiteSpace=wrap;html=1;fillColor=#ffe6cc;strokeColor=#d79b00;" vertex="1" parent="1">
          <mxGeometry x="2210" y="760" width="250" height="65" as="geometry" />
        </mxCell>
        <mxCell id="X08TphvUrJ8iC7uKPG2M-65" value="&lt;p style=&quot;line-height: 190%;&quot;&gt;&lt;span style=&quot;font-size: 20px;&quot;&gt;&lt;font face=&quot;Times New Roman&quot;&gt;Shared Volume&lt;/font&gt;&lt;/span&gt;&lt;/p&gt;" style="rounded=0;whiteSpace=wrap;html=1;fillColor=#fff2cc;strokeColor=#d6b656;" vertex="1" parent="1">
          <mxGeometry x="2204.25" y="589.25" width="135" height="33" as="geometry" />
        </mxCell>
        <mxCell id="X08TphvUrJ8iC7uKPG2M-66" value="&lt;font style=&quot;font-size: 25px;&quot;&gt;write&lt;/font&gt;" style="edgeLabel;html=1;align=center;verticalAlign=middle;resizable=0;points=[];" vertex="1" connectable="0" parent="1">
          <mxGeometry x="1840" y="774.9" as="geometry">
            <mxPoint x="309" y="-1" as="offset" />
          </mxGeometry>
        </mxCell>
      </root>
    </mxGraphModel>
  </diagram>
</mxfile>
